{
  "accessors": [
    {
      "bufferView": 1,
      "componentType": 5126,
      "count": 13063,
      "max": [
        35.45378494262695,
        28.633371353149414,
        21.696916580200195
      ],
      "min": [
        -35.45389175415039,
        -26.34928321838379,
        -22.27142333984375
      ],
      "type": "VEC3"
    },
    {
      "bufferView": 1,
      "byteOffset": 156756,
      "componentType": 5126,
      "count": 13063,
      "max": [
        0.9998424053192139,
        0.9997681379318237,
        0.9997355341911316
      ],
      "min": [
        -0.9991152286529541,
        -0.9998055696487427,
        -0.9999698400497437
      ],
      "type": "VEC3"
    },
    {
      "bufferView": 0,
      "componentType": 5125,
      "count": 75336,
      "type": "SCALAR"
    }
  ],
  "asset": {
    "extras": {
      "author": "ilovegm.rgm79 (https://sketchfab.com/ilovegm.rgm79)",
      "license": "CC-BY-4.0 (http://creativecommons.org/licenses/by/4.0/)",
      "source": "https://sketchfab.com/3d-models/enhanced-action-explosion-effect-part-4930050d85044fd4b30d10aaa429d6f7",
      "title": "Enhanced Action Explosion Effect part"
    },
    "generator": "Sketchfab-12.65.0",
    "version": "2.0"
  },
  "bufferViews": [
    {
      "buffer": 0,
      "byteLength": 301344,
      "name": "floatBufferViews",
      "target": 34963
    },
    {
      "buffer": 0,
      "byteLength": 313512,
      "byteOffset": 301344,
      "byteStride": 12,
      "name": "floatBufferViews",
      "target": 34962
    }
  ],
  "buffers": [
    {
      "byteLength": 614856,
      "uri": "scene.bin"
    }
  ],
  "materials": [
    {
      "doubleSided": true,
      "name": "Scene_-_Root",
      "pbrMetallicRoughness": {
        "metallicFactor": 0.0,
        "roughnessFactor": 0.6
      }
    }
  ],
  "meshes": [
    {
      "name": "Object_0",
      "primitives": [
        {
          "attributes": {
            "NORMAL": 1,
            "POSITION": 0
          },
          "indices": 2,
          "material": 0,
          "mode": 4
        }
      ]
    }
  ],
  "nodes": [
    {
      "children": [
        1
      ],
      "matrix": [
        1.0,
        0.0,
        0.0,
        0.0,
        0.0,
        2.220446049250313e-16,
        -1.0,
        0.0,
        0.0,
        1.0,
        2.220446049250313e-16,
        0.0,
        0.0,
        0.0,
        0.0,
        1.0
      ],
      "name": "Sketchfab_model"
    },
    {
      "children": [
        2
      ],
      "name": "Geode"
    },
    {
      "mesh": 0,
      "name": "Object_2"
    }
  ],
  "scene": 0,
  "scenes": [
    {
      "name": "Sketchfab_Scene",
      "nodes": [
        0
      ]
    }
  ]
}
