{
  "accessors": [
    {
      "bufferView": 2,
      "componentType": 5126,
      "count": 946,
      "max": [
        0.42924028635025024,
        0.42924028635025024,
        0.18315747380256653
      ],
      "min": [
        -0.42924028635025024,
        -0.42924028635025024,
        0.05278636887669563
      ],
      "type": "VEC3"
    },
    {
      "bufferView": 2,
      "byteOffset": 11352,
      "componentType": 5126,
      "count": 946,
      "max": [
        1.0,
        1.0,
        1.0
      ],
      "min": [
        -1.0,
        -1.0,
        -1.0
      ],
      "type": "VEC3"
    },
    {
      "bufferView": 1,
      "componentType": 5126,
      "count": 946,
      "max": [
        0.9891430139541626,
        0.9914349913597107
      ],
      "min": [
        0.616225004196167,
        0.0160559993237257
      ],
      "type": "VEC2"
    },
    {
      "bufferView": 0,
      "componentType": 5125,
      "count": 4872,
      "type": "SCALAR"
    },
    {
      "bufferView": 2,
      "byteOffset": 22704,
      "componentType": 5126,
      "count": 330,
      "max": [
        0.32005390524864197,
        0.08073584735393524,
        0.2796015441417694
      ],
      "min": [
        -0.32005390524864197,
        -0.0807361751794815,
        0.18315744400024414
      ],
      "type": "VEC3"
    },
    {
      "bufferView": 2,
      "byteOffset": 26664,
      "componentType": 5126,
      "count": 330,
      "max": [
        0.9999966025352478,
        1.0,
        1.0
      ],
      "min": [
        -0.9999966025352478,
        -1.0,
        -1.0
      ],
      "type": "VEC3"
    },
    {
      "bufferView": 1,
      "byteOffset": 7568,
      "componentType": 5126,
      "count": 330,
      "max": [
        0.985945999622345,
        0.3225739896297455
      ],
      "min": [
        0.08365900069475174,
        0.00887100026011467
      ],
      "type": "VEC2"
    },
    {
      "bufferView": 0,
      "byteOffset": 19488,
      "componentType": 5125,
      "count": 1392,
      "type": "SCALAR"
    },
    {
      "bufferView": 2,
      "byteOffset": 30624,
      "componentType": 5126,
      "count": 1029,
      "max": [
        0.34891465306282043,
        0.34891462326049805,
        0.5170837640762329
      ],
      "min": [
        -0.34891465306282043,
        -0.34891465306282043,
        0.21670760214328766
      ],
      "type": "VEC3"
    },
    {
      "bufferView": 2,
      "byteOffset": 42972,
      "componentType": 5126,
      "count": 1029,
      "max": [
        0.998996376991272,
        0.998996376991272,
        0.9972233772277832
      ],
      "min": [
        -0.998996376991272,
        -0.998996376991272,
        0.04479023441672325
      ],
      "type": "VEC3"
    },
    {
      "bufferView": 1,
      "byteOffset": 10208,
      "componentType": 5126,
      "count": 1029,
      "max": [
        0.6304270029067993,
        0.9914849996566772
      ],
      "min": [
        0.003120000008493662,
        0.003120000008493662
      ],
      "type": "VEC2"
    },
    {
      "bufferView": 0,
      "byteOffset": 25056,
      "componentType": 5125,
      "count": 5760,
      "type": "SCALAR"
    },
    {
      "bufferView": 2,
      "byteOffset": 55320,
      "componentType": 5126,
      "count": 404,
      "max": [
        0.040325798094272614,
        0.04656415805220604,
        0.06566490978002548
      ],
      "min": [
        -0.04032573848962784,
        -0.04656415432691574,
        -0.0017820002976804972
      ],
      "type": "VEC3"
    },
    {
      "bufferView": 2,
      "byteOffset": 60168,
      "componentType": 5126,
      "count": 404,
      "max": [
        1.0,
        0.9999623894691467,
        1.0
      ],
      "min": [
        -1.0,
        -0.9999623894691467,
        -0.6556897759437561
      ],
      "type": "VEC3"
    },
    {
      "bufferView": 1,
      "byteOffset": 18440,
      "componentType": 5126,
      "count": 404,
      "max": [
        0.9775609970092773,
        0.9920870065689087
      ],
      "min": [
        0.003120000008493662,
        0.003120000008493662
      ],
      "type": "VEC2"
    },
    {
      "bufferView": 0,
      "byteOffset": 48096,
      "componentType": 5125,
      "count": 1710,
      "type": "SCALAR"
    },
    {
      "bufferView": 2,
      "byteOffset": 65016,
      "componentType": 5126,
      "count": 138,
      "max": [
        0.030876265838742256,
        0.030876213684678078,
        0.09663769602775574
      ],
      "min": [
        -0.030876195058226585,
        -0.030876247212290764,
        -0.0017819927306845784
      ],
      "type": "VEC3"
    },
    {
      "bufferView": 2,
      "byteOffset": 66672,
      "componentType": 5126,
      "count": 138,
      "max": [
        1.0,
        1.0,
        1.0
      ],
      "min": [
        -1.0,
        -1.0,
        -1.0
      ],
      "type": "VEC3"
    },
    {
      "bufferView": 1,
      "byteOffset": 21672,
      "componentType": 5126,
      "count": 138,
      "max": [
        0.9908999800682068,
        0.9916449785232544
      ],
      "min": [
        0.018720999360084534,
        0.003120000008493662
      ],
      "type": "VEC2"
    },
    {
      "bufferView": 0,
      "byteOffset": 54936,
      "componentType": 5125,
      "count": 540,
      "type": "SCALAR"
    }
  ],
  "asset": {
    "extras": {
      "author": "gla_bot (https://sketchfab.com/gla_bot)",
      "license": "CC-BY-4.0 (http://creativecommons.org/licenses/by/4.0/)",
      "source": "https://sketchfab.com/3d-models/table-bell-77f2ea17b4c84fe1a8d2aec02caa9de3",
      "title": "Table Bell"
    },
    "generator": "Sketchfab-12.65.0",
    "version": "2.0"
  },
  "bufferViews": [
    {
      "buffer": 0,
      "byteLength": 57096,
      "name": "floatBufferViews",
      "target": 34963
    },
    {
      "buffer": 0,
      "byteLength": 22776,
      "byteOffset": 57096,
      "byteStride": 8,
      "name": "floatBufferViews",
      "target": 34962
    },
    {
      "buffer": 0,
      "byteLength": 68328,
      "byteOffset": 79872,
      "byteStride": 12,
      "name": "floatBufferViews",
      "target": 34962
    }
  ],
  "buffers": [
    {
      "byteLength": 148200,
      "uri": "scene.bin"
    }
  ],
  "images": [
    {
      "uri": "textures/Black_metal_baseColor.png"
    },
    {
      "uri": "textures/Black_metal_metallicRoughness.png"
    },
    {
      "uri": "textures/Metal_baseColor.png"
    },
    {
      "uri": "textures/Metal_metallicRoughness.png"
    }
  ],
  "materials": [
    {
      "doubleSided": true,
      "name": "Black_metal",
      "occlusionTexture": {
        "index": 1
      },
      "pbrMetallicRoughness": {
        "baseColorTexture": {
          "index": 0
        },
        "metallicRoughnessTexture": {
          "index": 1
        }
      }
    },
    {
      "doubleSided": true,
      "name": "Metal",
      "occlusionTexture": {
        "index": 3
      },
      "pbrMetallicRoughness": {
        "baseColorTexture": {
          "index": 2
        },
        "metallicRoughnessTexture": {
          "index": 3
        }
      }
    }
  ],
  "meshes": [
    {
      "name": "Base_Black_metal_0",
      "primitives": [
        {
          "attributes": {
            "NORMAL": 1,
            "POSITION": 0,
            "TEXCOORD_0": 2
          },
          "indices": 3,
          "material": 0,
          "mode": 4
        }
      ]
    },
    {
      "name": "Connectors_Black_metal_0",
      "primitives": [
        {
          "attributes": {
            "NORMAL": 5,
            "POSITION": 4,
            "TEXCOORD_0": 6
          },
          "indices": 7,
          "material": 0,
          "mode": 4
        }
      ]
    },
    {
      "name": "Dome_Metal_0",
      "primitives": [
        {
          "attributes": {
            "NORMAL": 9,
            "POSITION": 8,
            "TEXCOORD_0": 10
          },
          "indices": 11,
          "material": 1,
          "mode": 4
        }
      ]
    },
    {
      "name": "Screw_Metal_0",
      "primitives": [
        {
          "attributes": {
            "NORMAL": 13,
            "POSITION": 12,
            "TEXCOORD_0": 14
          },
          "indices": 15,
          "material": 1,
          "mode": 4
        }
      ]
    },
    {
      "name": "Button_Metal_0",
      "primitives": [
        {
          "attributes": {
            "NORMAL": 17,
            "POSITION": 16,
            "TEXCOORD_0": 18
          },
          "indices": 19,
          "material": 1,
          "mode": 4
        }
      ]
    }
  ],
  "nodes": [
    {
      "children": [
        1
      ],
      "matrix": [
        1.0,
        0.0,
        0.0,
        0.0,
        0.0,
        2.220446049250313e-16,
        -1.0,
        0.0,
        0.0,
        1.0,
        2.220446049250313e-16,
        0.0,
        0.0,
        0.0,
        0.0,
        1.0
      ],
      "name": "Sketchfab_model"
    },
    {
      "children": [
        2
      ],
      "matrix": [
        1.0,
        0.0,
        0.0,
        0.0,
        0.0,
        0.0,
        1.0,
        0.0,
        0.0,
        -1.0,
        0.0,
        0.0,
        0.0,
        0.0,
        0.0,
        1.0
      ],
      "name": "Table Bell.fbx"
    },
    {
      "children": [
        3,
        5,
        7,
        9,
        11
      ],
      "name": "RootNode"
    },
    {
      "children": [
        4
      ],
      "matrix": [
        100.0,
        0.0,
        0.0,
        0.0,
        0.0,
        -1.629206793918314e-05,
        -99.99999999999868,
        0.0,
        0.0,
        99.99999999999868,
        -1.629206793918314e-05,
        0.0,
        0.0,
        0.0,
        0.0,
        1.0
      ],
      "name": "Base"
    },
    {
      "mesh": 0,
      "name": "Base_Black_metal_0"
    },
    {
      "children": [
        6
      ],
      "matrix": [
        100.0,
        0.0,
        0.0,
        0.0,
        0.0,
        -1.629206793918314e-05,
        -99.99999999999868,
        0.0,
        0.0,
        99.99999999999868,
        -1.629206793918314e-05,
        0.0,
        0.0,
        0.0,
        0.0,
        1.0
      ],
      "name": "Connectors"
    },
    {
      "mesh": 1,
      "name": "Connectors_Black_metal_0"
    },
    {
      "children": [
        8
      ],
      "matrix": [
        100.0,
        0.0,
        0.0,
        0.0,
        0.0,
        -1.629206793918314e-05,
        -99.99999999999868,
        0.0,
        0.0,
        99.99999999999868,
        -1.629206793918314e-05,
        0.0,
        0.0,
        0.0,
        0.0,
        1.0
      ],
      "name": "Dome"
    },
    {
      "mesh": 2,
      "name": "Dome_Metal_0"
    },
    {
      "children": [
        10
      ],
      "matrix": [
        100.0,
        0.0,
        0.0,
        0.0,
        -0.0,
        -1.629206793918314e-05,
        -99.99999999999868,
        0.0,
        0.0,
        99.99999999999868,
        -1.629206793918314e-05,
        0.0,
        -1.6220535599131836e-06,
        51.849185943603516,
        4.7497451305389404e-06,
        1.0
      ],
      "name": "Screw"
    },
    {
      "mesh": 3,
      "name": "Screw_Metal_0"
    },
    {
      "children": [
        12
      ],
      "matrix": [
        100.0,
        0.0,
        0.0,
        0.0,
        -0.0,
        -1.629206793918314e-05,
        -99.99999999999868,
        0.0,
        0.0,
        99.99999999999868,
        -1.629206793918314e-05,
        0.0,
        -1.6220535599131836e-06,
        51.849185943603516,
        4.7497451305389404e-06,
        1.0
      ],
      "name": "Button"
    },
    {
      "mesh": 4,
      "name": "Button_Metal_0"
    }
  ],
  "samplers": [
    {
      "magFilter": 9729,
      "minFilter": 9987,
      "wrapS": 10497,
      "wrapT": 10497
    }
  ],
  "scene": 0,
  "scenes": [
    {
      "name": "Sketchfab_Scene",
      "nodes": [
        0
      ]
    }
  ],
  "textures": [
    {
      "sampler": 0,
      "source": 0
    },
    {
      "sampler": 0,
      "source": 1
    },
    {
      "sampler": 0,
      "source": 2
    },
    {
      "sampler": 0,
      "source": 3
    }
  ]
}
