{
  "accessors": [
    {
      "bufferView": 2,
      "componentType": 5126,
      "count": 3688,
      "max": [
        6.287834644317627,
        6.046570777893066,
        6.552091121673584
      ],
      "min": [
        -7.078536033630371,
        -5.913949012756348,
        -6.260847091674805
      ],
      "type": "VEC3"
    },
    {
      "bufferView": 2,
      "byteOffset": 44256,
      "componentType": 5126,
      "count": 3688,
      "max": [
        0.9999457597732544,
        0.9998090267181396,
        0.9998605847358704
      ],
      "min": [
        -1.0,
        -0.9999995827674866,
        -0.9911328554153442
      ],
      "type": "VEC3"
    },
    {
      "bufferView": 3,
      "componentType": 5126,
      "count": 3688,
      "max": [
        0.9907891154289246,
        0.9999998807907104,
        0.9999582171440125,
        1.0
      ],
      "min": [
        -0.9984564185142517,
        -0.9999997615814209,
        -0.997086226940155,
        -1.0
      ],
      "type": "VEC4"
    },
    {
      "bufferView": 1,
      "componentType": 5126,
      "count": 3688,
      "max": [
        0.9968753457069397,
        0.9794439077377319
      ],
      "min": [
        0.005172455217689276,
        0.10498885810375214
      ],
      "type": "VEC2"
    },
    {
      "bufferView": 0,
      "componentType": 5125,
      "count": 16437,
      "type": "SCALAR"
    },
    {
      "bufferView": 2,
      "byteOffset": 88512,
      "componentType": 5126,
      "count": 3936,
      "max": [
        6.438104629516602,
        4.558591365814209,
        20.145549774169922
      ],
      "min": [
        -7.584685802459717,
        -2.2417807579040527,
        -7.511037349700928
      ],
      "type": "VEC3"
    },
    {
      "bufferView": 2,
      "byteOffset": 135744,
      "componentType": 5126,
      "count": 3936,
      "max": [
        1.0,
        1.0,
        1.0
      ],
      "min": [
        -1.0,
        -1.0,
        -1.0
      ],
      "type": "VEC3"
    },
    {
      "bufferView": 3,
      "byteOffset": 59008,
      "componentType": 5126,
      "count": 3936,
      "max": [
        1.0,
        0.9995914697647095,
        1.0,
        1.0
      ],
      "min": [
        -0.9991914629936218,
        -0.9999938011169434,
        -0.9942362308502197,
        -1.0
      ],
      "type": "VEC4"
    },
    {
      "bufferView": 1,
      "byteOffset": 29504,
      "componentType": 5126,
      "count": 3936,
      "max": [
        0.9974323511123657,
        0.9853118658065796
      ],
      "min": [
        0.0024357065558433533,
        0.09756821393966675
      ],
      "type": "VEC2"
    },
    {
      "bufferView": 0,
      "byteOffset": 65748,
      "componentType": 5125,
      "count": 14574,
      "type": "SCALAR"
    },
    {
      "bufferView": 2,
      "byteOffset": 182976,
      "componentType": 5126,
      "count": 1527,
      "max": [
        1.9210536479949951,
        5.354427337646484,
        6.824345588684082
      ],
      "min": [
        -7.664957046508789,
        -5.177290916442871,
        -8.129372596740723
      ],
      "type": "VEC3"
    },
    {
      "bufferView": 2,
      "byteOffset": 201300,
      "componentType": 5126,
      "count": 1527,
      "max": [
        0.9999872446060181,
        1.0,
        0.9999920725822449
      ],
      "min": [
        -1.0,
        -1.0,
        -1.0
      ],
      "type": "VEC3"
    },
    {
      "bufferView": 3,
      "byteOffset": 121984,
      "componentType": 5126,
      "count": 1527,
      "max": [
        1.0,
        1.0,
        1.0,
        1.0
      ],
      "min": [
        -1.0,
        -0.9994034171104431,
        -1.0,
        1.0
      ],
      "type": "VEC4"
    },
    {
      "bufferView": 1,
      "byteOffset": 60992,
      "componentType": 5126,
      "count": 1527,
      "max": [
        0.9979586005210876,
        0.9942741394042969
      ],
      "min": [
        0.16572871804237366,
        0.014547900296747684
      ],
      "type": "VEC2"
    },
    {
      "bufferView": 0,
      "byteOffset": 124044,
      "componentType": 5125,
      "count": 6096,
      "type": "SCALAR"
    },
    {
      "bufferView": 2,
      "byteOffset": 219624,
      "componentType": 5126,
      "count": 3204,
      "max": [
        5.34020471572876,
        5.193140983581543,
        5.092956066131592
      ],
      "min": [
        -4.957766056060791,
        -4.804563045501709,
        -5.205015182495117
      ],
      "type": "VEC3"
    },
    {
      "bufferView": 2,
      "byteOffset": 258072,
      "componentType": 5126,
      "count": 3204,
      "max": [
        0.9996544718742371,
        0.9974601864814758,
        0.9996545314788818
      ],
      "min": [
        -0.9996544718742371,
        -0.9865769743919373,
        -0.9996544718742371
      ],
      "type": "VEC3"
    },
    {
      "bufferView": 3,
      "byteOffset": 146416,
      "componentType": 5126,
      "count": 3204,
      "max": [
        0.9999377131462097,
        0.9994460344314575,
        0.9997640252113342,
        1.0
      ],
      "min": [
        -0.9999763369560242,
        -0.9994477033615112,
        -0.9997639656066895,
        1.0
      ],
      "type": "VEC4"
    },
    {
      "bufferView": 1,
      "byteOffset": 73208,
      "componentType": 5126,
      "count": 3204,
      "max": [
        0.8803181052207947,
        0.9972646236419678
      ],
      "min": [
        0.0034697733353823423,
        0.012801190838217735
      ],
      "type": "VEC2"
    },
    {
      "bufferView": 0,
      "byteOffset": 148428,
      "componentType": 5125,
      "count": 13824,
      "type": "SCALAR"
    },
    {
      "bufferView": 2,
      "byteOffset": 296520,
      "componentType": 5126,
      "count": 116,
      "max": [
        1.609735131263733,
        5.533202171325684,
        1.634941816329956
      ],
      "min": [
        -1.609735131263733,
        2.8468008041381836,
        -1.634194016456604
      ],
      "type": "VEC3"
    },
    {
      "bufferView": 2,
      "byteOffset": 297912,
      "componentType": 5126,
      "count": 116,
      "max": [
        0.8978248834609985,
        -0.40426766872406006,
        0.9146407842636108
      ],
      "min": [
        -0.896164059638977,
        -1.0,
        -0.9048407077789307
      ],
      "type": "VEC3"
    },
    {
      "bufferView": 3,
      "byteOffset": 197680,
      "componentType": 5126,
      "count": 116,
      "max": [
        0.9999974370002747,
        0.8148164749145508,
        0.9643891453742981,
        1.0
      ],
      "min": [
        -1.0,
        -0.37987020611763,
        -1.0,
        -1.0
      ],
      "type": "VEC4"
    },
    {
      "bufferView": 1,
      "byteOffset": 98840,
      "componentType": 5126,
      "count": 116,
      "max": [
        0.9986526966094971,
        0.9641095995903015
      ],
      "min": [
        0.7003621459007263,
        0.4296121895313263
      ],
      "type": "VEC2"
    },
    {
      "bufferView": 0,
      "byteOffset": 203724,
      "componentType": 5125,
      "count": 378,
      "type": "SCALAR"
    },
    {
      "bufferView": 2,
      "byteOffset": 299304,
      "componentType": 5126,
      "count": 206,
      "max": [
        1.8431950807571411,
        -0.5103089213371277,
        1.588976263999939
      ],
      "min": [
        -1.4493749141693115,
        -5.5109100341796875,
        -1.7035937309265137
      ],
      "type": "VEC3"
    },
    {
      "bufferView": 2,
      "byteOffset": 301776,
      "componentType": 5126,
      "count": 206,
      "max": [
        0.9805662631988525,
        0.0050506326369941235,
        0.980566143989563
      ],
      "min": [
        -0.9805671572685242,
        -0.999988317489624,
        -0.9805670380592346
      ],
      "type": "VEC3"
    },
    {
      "bufferView": 3,
      "byteOffset": 199536,
      "componentType": 5126,
      "count": 206,
      "max": [
        1.0,
        0.9805656671524048,
        0.3831334114074707,
        1.0
      ],
      "min": [
        0.19618405401706696,
        -0.9805666208267212,
        -0.351833313703537,
        1.0
      ],
      "type": "VEC4"
    },
    {
      "bufferView": 1,
      "byteOffset": 99768,
      "componentType": 5126,
      "count": 206,
      "max": [
        0.9396389126777649,
        0.8330137729644775
      ],
      "min": [
        0.6065691113471985,
        0.014554630033671856
      ],
      "type": "VEC2"
    },
    {
      "bufferView": 0,
      "byteOffset": 205236,
      "componentType": 5125,
      "count": 846,
      "type": "SCALAR"
    }
  ],
  "asset": {
    "extras": {
      "author": "nick.dob (https://sketchfab.com/nick.dob)",
      "license": "CC-BY-4.0 (http://creativecommons.org/licenses/by/4.0/)",
      "source": "https://sketchfab.com/3d-models/drk-1-probe-droid-ce96ea38dfb54199be3b8f8ecef7a6b8",
      "title": "DRK-1 Probe Droid"
    },
    "generator": "Sketchfab-12.68.0",
    "version": "2.0"
  },
  "bufferViews": [
    {
      "buffer": 0,
      "byteLength": 208620,
      "name": "floatBufferViews",
      "target": 34963
    },
    {
      "buffer": 0,
      "byteLength": 101416,
      "byteOffset": 208620,
      "byteStride": 8,
      "name": "floatBufferViews",
      "target": 34962
    },
    {
      "buffer": 0,
      "byteLength": 304248,
      "byteOffset": 310036,
      "byteStride": 12,
      "name": "floatBufferViews",
      "target": 34962
    },
    {
      "buffer": 0,
      "byteLength": 202832,
      "byteOffset": 614284,
      "byteStride": 16,
      "name": "floatBufferViews",
      "target": 34962
    }
  ],
  "buffers": [
    {
      "byteLength": 817116,
      "uri": "scene.bin"
    }
  ],
  "images": [
    {
      "uri": "textures/Material_26_baseColor.png"
    },
    {
      "uri": "textures/Material_26_metallicRoughness.png"
    },
    {
      "uri": "textures/Material_26_normal.png"
    }
  ],
  "materials": [
    {
      "name": "Material_26",
      "normalTexture": {
        "index": 2
      },
      "occlusionTexture": {
        "index": 1
      },
      "pbrMetallicRoughness": {
        "baseColorTexture": {
          "index": 0
        },
        "metallicRoughnessTexture": {
          "index": 1
        }
      }
    }
  ],
  "meshes": [
    {
      "name": "shell_low_Material #26_0",
      "primitives": [
        {
          "attributes": {
            "NORMAL": 1,
            "POSITION": 0,
            "TANGENT": 2,
            "TEXCOORD_0": 3
          },
          "indices": 4,
          "material": 0,
          "mode": 4
        }
      ]
    },
    {
      "name": "d_low_Material #26_0",
      "primitives": [
        {
          "attributes": {
            "NORMAL": 6,
            "POSITION": 5,
            "TANGENT": 7,
            "TEXCOORD_0": 8
          },
          "indices": 9,
          "material": 0,
          "mode": 4
        }
      ]
    },
    {
      "name": "cam_low_Material #26_0",
      "primitives": [
        {
          "attributes": {
            "NORMAL": 11,
            "POSITION": 10,
            "TANGENT": 12,
            "TEXCOORD_0": 13
          },
          "indices": 14,
          "material": 0,
          "mode": 4
        }
      ]
    },
    {
      "name": "ball_low_Material #26_0",
      "primitives": [
        {
          "attributes": {
            "NORMAL": 16,
            "POSITION": 15,
            "TANGENT": 17,
            "TEXCOORD_0": 18
          },
          "indices": 19,
          "material": 0,
          "mode": 4
        }
      ]
    },
    {
      "name": "inner_low_Material #26_0",
      "primitives": [
        {
          "attributes": {
            "NORMAL": 21,
            "POSITION": 20,
            "TANGENT": 22,
            "TEXCOORD_0": 23
          },
          "indices": 24,
          "material": 0,
          "mode": 4
        }
      ]
    },
    {
      "name": "Object018_Material #26_0",
      "primitives": [
        {
          "attributes": {
            "NORMAL": 26,
            "POSITION": 25,
            "TANGENT": 27,
            "TEXCOORD_0": 28
          },
          "indices": 29,
          "material": 0,
          "mode": 4
        }
      ]
    }
  ],
  "nodes": [
    {
      "children": [
        1
      ],
      "matrix": [
        1.0,
        0.0,
        0.0,
        0.0,
        0.0,
        4.440892098500626e-16,
        -1.0,
        0.0,
        0.0,
        1.0,
        4.440892098500626e-16,
        0.0,
        0.0,
        2.9582283945787943e-31,
        -1.3322676295501878e-15,
        1.0
      ],
      "name": "Sketchfab_model"
    },
    {
      "children": [
        2
      ],
      "matrix": [
        1.0,
        0.0,
        0.0,
        0.0,
        0.0,
        0.0,
        1.0,
        0.0,
        0.0,
        -1.0,
        0.0,
        0.0,
        0.0,
        0.0,
        0.0,
        1.0
      ],
      "name": "79a52f51fb384c06b8eba7e4107c9fa8.fbx"
    },
    {
      "children": [
        3,
        5,
        7,
        9,
        11,
        13
      ],
      "name": "RootNode"
    },
    {
      "children": [
        4
      ],
      "matrix": [
        1.0,
        0.0,
        0.0,
        0.0,
        0.0,
        2.220446049250313e-16,
        -1.0,
        0.0,
        0.0,
        1.0,
        2.220446049250313e-16,
        0.0,
        -0.4226703643798828,
        0.03571462631225586,
        -0.08364224433898926,
        1.0
      ],
      "name": "shell_low"
    },
    {
      "mesh": 0,
      "name": "shell_low_Material #26_0"
    },
    {
      "children": [
        6
      ],
      "matrix": [
        1.0,
        0.0,
        0.0,
        0.0,
        0.0,
        2.220446049250313e-16,
        -1.0,
        0.0,
        0.0,
        1.0,
        2.220446049250313e-16,
        0.0,
        -0.4226703643798828,
        0.03571462631225586,
        -0.08364224433898926,
        1.0
      ],
      "name": "d_low"
    },
    {
      "mesh": 1,
      "name": "d_low_Material #26_0"
    },
    {
      "children": [
        8
      ],
      "matrix": [
        1.0,
        0.0,
        0.0,
        0.0,
        0.0,
        2.220446049250313e-16,
        -1.0,
        0.0,
        0.0,
        1.0,
        2.220446049250313e-16,
        0.0,
        -0.4226703643798828,
        0.03571462631225586,
        -0.08364224433898926,
        1.0
      ],
      "name": "cam_low"
    },
    {
      "mesh": 2,
      "name": "cam_low_Material #26_0"
    },
    {
      "children": [
        10
      ],
      "matrix": [
        1.0,
        0.0,
        0.0,
        0.0,
        0.0,
        2.220446049250313e-16,
        -1.0,
        0.0,
        0.0,
        1.0,
        2.220446049250313e-16,
        0.0,
        -0.4226703643798828,
        0.03571462631225586,
        -0.08364224433898926,
        1.0
      ],
      "name": "ball_low"
    },
    {
      "mesh": 3,
      "name": "ball_low_Material #26_0"
    },
    {
      "children": [
        12
      ],
      "matrix": [
        1.0,
        0.0,
        0.0,
        0.0,
        0.0,
        2.220446049250313e-16,
        -1.0,
        0.0,
        0.0,
        1.0,
        2.220446049250313e-16,
        0.0,
        -0.21114349365234375,
        -0.032694339752197266,
        7.813101768493652,
        1.0
      ],
      "name": "inner_low"
    },
    {
      "mesh": 4,
      "name": "inner_low_Material #26_0"
    },
    {
      "children": [
        14
      ],
      "matrix": [
        1.0,
        0.0,
        0.0,
        0.0,
        0.0,
        2.220446049250313e-16,
        -1.0,
        0.0,
        0.0,
        1.0,
        2.220446049250313e-16,
        0.0,
        -0.4226703643798828,
        0.03571462631225586,
        -0.08364224433898926,
        1.0
      ],
      "name": "Object018"
    },
    {
      "mesh": 5,
      "name": "Object018_Material #26_0"
    }
  ],
  "samplers": [
    {
      "magFilter": 9729,
      "minFilter": 9987,
      "wrapS": 10497,
      "wrapT": 33648
    },
    {
      "magFilter": 9729,
      "minFilter": 9987,
      "wrapS": 10497,
      "wrapT": 10497
    }
  ],
  "scene": 0,
  "scenes": [
    {
      "name": "Sketchfab_Scene",
      "nodes": [
        0
      ]
    }
  ],
  "textures": [
    {
      "sampler": 0,
      "source": 0
    },
    {
      "sampler": 1,
      "source": 1
    },
    {
      "sampler": 1,
      "source": 2
    }
  ]
}
