{
  "accessors": [
    {
      "bufferView": 2,
      "componentType": 5126,
      "count": 136,
      "max": [
        1.189873456954956,
        0.7161589860916138,
        1.189873456954956
      ],
      "min": [
        -1.189873456954956,
        -1.194021463394165,
        -1.189873456954956
      ],
      "type": "VEC3"
    },
    {
      "bufferView": 2,
      "byteOffset": 1632,
      "componentType": 5126,
      "count": 136,
      "max": [
        0.9497549533843994,
        1.0,
        0.9497549533843994
      ],
      "min": [
        -0.9497549533843994,
        -1.0,
        -0.9497549533843994
      ],
      "type": "VEC3"
    },
    {
      "bufferView": 1,
      "componentType": 5126,
      "count": 136,
      "max": [
        0.875,
        1.0
      ],
      "min": [
        0.1249999925494194,
        0.0
      ],
      "type": "VEC2"
    },
    {
      "bufferView": 0,
      "componentType": 5125,
      "count": 204,
      "type": "SCALAR"
    }
  ],
  "asset": {
    "extras": {
      "author": "kimberly.h (https://sketchfab.com/kimberly.h)",
      "license": "CC-BY-4.0 (http://creativecommons.org/licenses/by/4.0/)",
      "source": "https://sketchfab.com/3d-models/lazer-bullet-8039a4fdcd454f76aa88daa4c1ebaa29",
      "title": "Lazer Bullet"
    },
    "generator": "Sketchfab-12.68.0",
    "version": "2.0"
  },
  "bufferViews": [
    {
      "buffer": 0,
      "byteLength": 816,
      "name": "floatBufferViews",
      "target": 34963
    },
    {
      "buffer": 0,
      "byteLength": 1088,
      "byteOffset": 816,
      "byteStride": 8,
      "name": "floatBufferViews",
      "target": 34962
    },
    {
      "buffer": 0,
      "byteLength": 3264,
      "byteOffset": 1904,
      "byteStride": 12,
      "name": "floatBufferViews",
      "target": 34962
    }
  ],
  "buffers": [
    {
      "byteLength": 5168,
      "uri": "scene.bin"
    }
  ],
  "materials": [
    {
      "doubleSided": true,
      "emissiveFactor": [
        1.0,
        0.15470745843220907,
        1.0
      ],
      "name": "Material.001",
      "pbrMetallicRoughness": {
        "baseColorFactor": [
          0.9504074916579607,
          0.4555476829086949,
          0.8473226879414663,
          1.0
        ],
        "metallicFactor": 0.0,
        "roughnessFactor": 0.19595917942265426
      }
    }
  ],
  "meshes": [
    {
      "name": "Cube_Material.001_0",
      "primitives": [
        {
          "attributes": {
            "NORMAL": 1,
            "POSITION": 0,
            "TEXCOORD_0": 2
          },
          "indices": 3,
          "material": 0,
          "mode": 4
        }
      ]
    }
  ],
  "nodes": [
    {
      "children": [
        1
      ],
      "matrix": [
        1.0,
        0.0,
        0.0,
        0.0,
        0.0,
        2.220446049250313e-16,
        -1.0,
        0.0,
        0.0,
        1.0,
        2.220446049250313e-16,
        0.0,
        0.0,
        0.0,
        0.0,
        1.0
      ],
      "name": "Sketchfab_model"
    },
    {
      "children": [
        2
      ],
      "matrix": [
        1.0,
        0.0,
        0.0,
        0.0,
        0.0,
        0.0,
        1.0,
        0.0,
        0.0,
        -1.0,
        0.0,
        0.0,
        0.0,
        0.0,
        0.0,
        1.0
      ],
      "name": "1a8f43ec9d524586aed9ad03375f996b.fbx"
    },
    {
      "children": [
        3
      ],
      "name": "RootNode"
    },
    {
      "children": [
        4
      ],
      "matrix": [
        10.528111457824707,
        0.0,
        0.0,
        0.0,
        0.0,
        -1.0248760684138974e-05,
        -62.906444549559716,
        0.0,
        0.0,
        10.528111457824568,
        -1.715247071421726e-06,
        0.0,
        0.0,
        0.0,
        0.0,
        1.0
      ],
      "name": "Cube"
    },
    {
      "mesh": 0,
      "name": "Cube_Material.001_0"
    }
  ],
  "scene": 0,
  "scenes": [
    {
      "name": "Sketchfab_Scene",
      "nodes": [
        0
      ]
    }
  ]
}
